<svg width="49" height="49" viewBox="0 0 49 49" fill="none" xmlns="http://www.w3.org/2000/svg">
<path d="M17.6094 0C20.5666 0 22.9688 2.40215 22.9688 5.35938V43.6406C22.9688 46.5979 20.5666 49 17.6094 49C14.8436 49 12.5658 46.9041 12.2787 44.2053C11.7811 44.3393 11.2547 44.4062 10.7188 44.4062C7.34043 44.4062 4.59375 41.6596 4.59375 38.2812C4.59375 37.573 4.71816 36.884 4.93828 36.2523C2.04805 35.1613 0 32.3668 0 29.0938C0 26.0408 1.78965 23.3994 4.3832 22.1744C3.55059 21.1312 3.0625 19.8105 3.0625 18.375C3.0625 15.4369 5.12969 12.9869 7.88594 12.384C7.73281 11.8576 7.65625 11.293 7.65625 10.7188C7.65625 7.85723 9.62773 5.44551 12.2787 4.77559C12.5658 2.0959 14.8436 0 17.6094 0ZM31.3906 0C34.1564 0 36.4246 2.0959 36.7213 4.77559C39.3818 5.44551 41.3438 7.84766 41.3438 10.7188C41.3438 11.293 41.2672 11.8576 41.1141 12.384C43.8703 12.9773 45.9375 15.4369 45.9375 18.375C45.9375 19.8105 45.4494 21.1312 44.6168 22.1744C47.2104 23.3994 49 26.0408 49 29.0938C49 32.3668 46.952 35.1613 44.0617 36.2523C44.2818 36.884 44.4062 37.573 44.4062 38.2812C44.4062 41.6596 41.6596 44.4062 38.2812 44.4062C37.7453 44.4062 37.2189 44.3393 36.7213 44.2053C36.4342 46.9041 34.1564 49 31.3906 49C28.4334 49 26.0312 46.5979 26.0312 43.6406V5.35938C26.0312 2.40215 28.4334 0 31.3906 0Z" fill="#FFC034"/>
</svg>
