<svg width="47" height="43" viewBox="0 0 47 43" fill="none" xmlns="http://www.w3.org/2000/svg">
<path d="M46.4688 9.25003V10.7813C46.4688 10.9843 46.3881 11.1791 46.2445 11.3227C46.1009 11.4662 45.9062 11.5469 45.7031 11.5469H43.4062V12.6953C43.4062 13.3296 42.892 13.8438 42.2578 13.8438H4.74219C4.10796 13.8438 3.59375 13.3296 3.59375 12.6953V11.5469H1.29688C1.09382 11.5469 0.899079 11.4662 0.755496 11.3227C0.611914 11.1791 0.53125 10.9843 0.53125 10.7813V9.25003C0.531251 9.09856 0.576181 8.95049 0.660354 8.82456C0.744527 8.69864 0.864161 8.60051 1.00412 8.54259L23.2072 0.120713C23.3947 0.0430955 23.6053 0.0430955 23.7928 0.120713L45.9959 8.54259C46.1358 8.60051 46.2555 8.69864 46.3396 8.82456C46.4238 8.95049 46.4687 9.09856 46.4688 9.25003ZM44.1719 38.3438H2.82812C1.55958 38.3438 0.53125 39.3721 0.53125 40.6407V42.1719C0.53125 42.375 0.611914 42.5697 0.755496 42.7133C0.899079 42.8569 1.09382 42.9375 1.29688 42.9375H45.7031C45.9062 42.9375 46.1009 42.8569 46.2445 42.7133C46.3881 42.5697 46.4688 42.375 46.4688 42.1719V40.6407C46.4688 39.3721 45.4404 38.3438 44.1719 38.3438ZM8.1875 15.375V33.75H4.74219C4.10796 33.75 3.59375 34.2642 3.59375 34.8985V36.8125H43.4062V34.8985C43.4062 34.2642 42.892 33.75 42.2578 33.75H38.8125V15.375H32.6875V33.75H26.5625V15.375H20.4375V33.75H14.3125V15.375H8.1875Z" fill="#FFC034"/>
</svg>
