<svg width="37" height="45" viewBox="0 0 37 45" fill="none" xmlns="http://www.w3.org/2000/svg">
<path d="M13.4443 6.85463C13.4443 7.99411 13.8876 9.08692 14.6765 9.89265C15.4655 10.6984 16.5355 11.151 17.6512 11.151C18.767 11.151 19.837 10.6984 20.626 9.89265C21.4149 9.08692 21.8581 7.99411 21.8581 6.85463C21.8581 5.71516 21.4149 4.62235 20.626 3.81662C19.837 3.01088 18.767 2.55823 17.6512 2.55823C16.5355 2.55823 15.4655 3.01088 14.6765 3.81662C13.8876 4.62235 13.4443 5.71516 13.4443 6.85463Z" stroke="#FFC034" stroke-width="4" stroke-linecap="round" stroke-linejoin="round"/>
<path d="M17.6516 12.3198V29.5054H26.0654L34.4792 40.2465M17.6516 20.9126H28.1689M9.23781 21.9867C7.73068 22.6242 6.38939 23.6109 5.31998 24.8689C4.25057 26.1269 3.48235 27.6218 3.07606 29.2352C2.66977 30.8487 2.63655 32.5366 2.97901 34.1654C3.32148 35.7942 4.03025 37.3194 5.04929 38.6203C6.06833 39.9212 7.3697 40.9622 8.85053 41.661C10.3314 42.3597 11.951 42.6971 13.5816 42.6465C15.2121 42.5959 16.8087 42.1586 18.2452 41.3692C19.6817 40.5798 20.9188 39.46 21.8585 38.0983" stroke="#FFC034" stroke-width="4" stroke-linecap="round" stroke-linejoin="round"/>
</svg>
